<?xml version="1.0" encoding="UTF-8"?>
<!DOCTYPE svg PUBLIC "-//W3C//DTD SVG 1.1//EN" "http://www.w3.org/Graphics/SVG/1.1/DTD/svg11.dtd">
<!-- Creator: CorelDRAW 2019 (64-Bit) -->
<svg xmlns="http://www.w3.org/2000/svg" xml:space="preserve" width="100px" height="50px" version="1.1" style="shape-rendering:geometricPrecision; text-rendering:geometricPrecision; image-rendering:optimizeQuality; fill-rule:evenodd; clip-rule:evenodd"
viewBox="0 0 100 50"
 xmlns:xlink="http://www.w3.org/1999/xlink"
 xmlns:xodm="http://www.corel.com/coreldraw/odm/2003">
 <defs>
  <style type="text/css">
   <![CDATA[
    .fil1 {fill:#2B2A29}
    .fil0 {fill:#E31E24}
    .fil2 {fill:#2B2A29;fill-rule:nonzero}
   ]]>
  </style>
 </defs>
 <g id="Слой_x0020_1">
  <metadata id="CorelCorpID_0Corel-Layer"/>
  <g id="_2287773142448">
   <path class="fil0" d="M42.28 41.47l-30.01 0 3 -5.23c0.57,-1.21 1.78,-1.97 3.11,-1.97 0.03,0 0.05,0 0.08,0 0,0 0.01,0 0.02,0l19.72 0c1.37,2.42 2.73,4.82 4.08,7.2z"/>
   <path class="fil1" d="M33.2 25.45l-13.02 0 6.55 -11.43c2.19,3.87 4.35,7.68 6.47,11.43z"/>
   <path class="fil0" d="M2.29 41.47l19.96 -35.38 2.64 4.67 -10.17 17.74 20.21 0 1.63 2.88c-7.08,0 -14.15,0 -21.23,0 -0.34,0 -0.64,0.01 -0.99,0.08 -0.86,0.19 -1.6,0.7 -2.09,1.4 -0.15,0.21 -0.26,0.4 -0.39,0.63l-4.57 7.98 -5 0z"/>
  </g>
  <path class="fil2" d="M48.63 37.67l1.65 0 -3.21 -5.98 0 0 0 0 0 0 0 0 -3.21 5.98 1.65 0 0.43 -0.84 2.25 0 0.44 0.84zm-2.11 -1.96l0.55 -1.05 0.54 1.05 -1.09 0zm4.95 1.96l3.21 -5.98 -1.65 0 -1.56 2.99 -1.56 -2.99 -1.65 0 3.21 5.98 0 0.01 0 -0.01 0 0.01 0 -0.01zm8.3 -4.54l0 -1.44 -4.54 0 0 1.44 1.56 0 0 4.54 1.43 0 0 -4.54 1.55 0zm2.93 -1.41c-1.7,0 -3.07,1.38 -3.07,3.08 0,1.7 1.37,3.08 3.07,3.08 1.7,0 3.08,-1.38 3.08,-3.08 0,-1.7 -1.38,-3.08 -3.08,-3.08zm1.27 4.35c-0.34,0.33 -0.79,0.52 -1.27,0.52 -0.47,0 -0.92,-0.19 -1.26,-0.52 -0.34,-0.34 -0.53,-0.79 -0.53,-1.27 0,-0.48 0.19,-0.93 0.53,-1.27 0.34,-0.34 0.79,-0.52 1.26,-0.52 0.48,0 0.93,0.18 1.27,0.52 0.34,0.34 0.53,0.79 0.53,1.27 0,0.48 -0.19,0.93 -0.53,1.27zm5.4 -2.33l-3.17 -2.05 0 5.98 1.43 0 0 -3.34 1.72 1.12 1.77 -1.13 0 3.35 1.44 0 0 -5.98 -3.19 2.05zm8.32 3.93l1.66 0 -3.21 -5.98 0 0 0 0 0 0 0 0 -3.22 5.98 1.66 0 0.43 -0.84 2.25 0 0.43 0.84zm-2.1 -1.96l0.55 -1.05 0.54 1.05 -1.09 0zm7.37 -2.58l0 -1.44 -4.54 0 0 1.44 1.55 0 0 4.54 1.43 0 0 -4.54 1.56 0zm0.33 -1.44l0 5.98 1.43 0 0 -5.98 -1.43 0zm6.03 5.98l2.03 0 -3.11 -3.25 2.74 -2.73 -2.03 0 -2.38 2.38 0 -2.38 -1.43 0 0 5.98 1.43 0 0 -1.56 0.65 -0.67 2.1 2.23zm6.76 0l1.65 0 -3.2 -5.98 0 0 0 0 0 0 0 0 -3.22 5.98 1.66 0 0.43 -0.84 2.25 0 0.43 0.84zm-2.1 -1.96l0.55 -1.05 0.54 1.05 -1.09 0z"/>
  <path class="fil2" d="M48.43 29.77l2.03 0 -3.11 -3.25 2.74 -2.73 -2.03 0 -2.38 2.38 0 -2.38 -1.43 0 0 5.98 1.43 0 0 -1.57 0.65 -0.66 2.1 2.23zm6.76 0l1.66 0 -3.21 -5.98 0 0 0 0 0 0 0 0 -3.22 5.98 1.66 0 0.43 -0.84 2.25 0 0.43 0.84zm-2.1 -1.96l0.55 -1.05 0.54 1.05 -1.09 0zm9.17 -4.07l-5.05 0 0 1.28 3.27 0 -3.27 3.45 0 0 0 0.01 0 0 0 1.28 5.05 0.01 0 -1.3 -3.27 0 3.27 -3.45 0 -1.28zm3.42 0.05c-0.86,0 -1.25,0 -1.44,0l0 0 -1.43 0 0 0 0 0 0 4.07 0 0 0 1.91 1.43 0 0 -1.91c0.41,0 0.89,0 1.42,0 1.58,0 2.15,-1.18 2.15,-2.03 0,-0.92 -0.66,-2.04 -2.13,-2.04zm0.67 2.55c-0.07,0.06 -0.13,0.11 -0.21,0.15 -0.13,0.06 -0.29,0.09 -0.48,0.09l-1.42 0 0 -1.5 1.44 0c0.29,0 0.5,0.07 0.65,0.24 0.14,0.15 0.19,0.37 0.19,0.51 0,0.14 -0.04,0.35 -0.17,0.51zm7 -0.51c0,-0.92 -0.66,-2.04 -2.13,-2.04 -0.86,0 -1.25,0 -1.43,0l0 0 -1.43 0 0 5.98 1.43 0 0 -1.91c0.21,0 0.44,0 0.68,0l1.25 1.91 1.61 0 -1.29 -2.04c0.95,-0.34 1.31,-1.23 1.31,-1.9zm-3.56 -0.75l1.43 0c0.3,0 0.51,0.07 0.65,0.24 0.15,0.15 0.19,0.37 0.19,0.51 0,0.14 -0.04,0.35 -0.17,0.51 -0.06,0.06 -0.13,0.11 -0.21,0.15 -0.12,0.06 -0.29,0.09 -0.47,0.09l-1.42 0 0 -1.5zm6.87 -1.26c-1.7,0 -3.08,1.38 -3.08,3.08 0,1.7 1.38,3.08 3.08,3.08 1.7,0 3.08,-1.38 3.08,-3.08 0,-1.7 -1.38,-3.08 -3.08,-3.08zm1.27 4.35c-0.34,0.33 -0.79,0.52 -1.27,0.52 -0.48,0 -0.93,-0.19 -1.27,-0.52 -0.34,-0.34 -0.52,-0.79 -0.52,-1.27 0,-0.48 0.18,-0.93 0.52,-1.27 0.34,-0.34 0.79,-0.52 1.27,-0.52 0.48,0 0.93,0.18 1.27,0.52 0.34,0.34 0.52,0.79 0.52,1.27 0,0.48 -0.18,0.93 -0.52,1.27zm5.39 -2.33l-3.17 -2.05 0 5.98 1.43 0 0 -3.34 1.72 1.12 1.78 -1.13 0 3.35 1.43 0 0 -5.98 -3.19 2.05z"/>
 </g>
</svg>
